<?xml version="1.0" encoding="utf-8"?>
<!-- Generator: Adobe Illustrator 18.1.1, SVG Export Plug-In . SVG Version: 6.00 Build 0)  -->
<svg version="1.2" baseProfile="tiny" id="Layer_1" xmlns="http://www.w3.org/2000/svg" xmlns:xlink="http://www.w3.org/1999/xlink"
	 x="0px" y="0px" viewBox="0 0 342 327.2" xml:space="preserve">
<g>
	<path fill="none" d="M149.3,106.5c-22.1,0-40,18-40,40c0,22.1,18,40,40,40c1.4,0,2.8-0.1,4.2-0.2l-6.7-10.5c0,0-1.9-2.4-3.4-5.8
		c-10.5-2.6-18.4-12.2-18.4-23.5c0-13.3,10.9-24.2,24.2-24.2c13.3,0,24.2,10.9,24.2,24.2c0,3-0.6,5.9-1.6,8.6c0.7,1,1.2,2,1.6,2.5
		c0.5,0.7,3.6,5.6,8,12.7c4.9-6.7,7.9-14.9,7.9-23.8C189.4,124.5,171.4,106.5,149.3,106.5z"/>
	<path fill="none" d="M68.3,135.1c-6.3,0-11.5,5.1-11.5,11.5c0,6.4,5.2,11.5,11.5,11.5c6.4,0,11.5-5.1,11.5-11.5
		C79.8,140.2,74.7,135.1,68.3,135.1z"/>
	<path fill="none" d="M149.3,76.8c6.4,0,11.5-5.1,11.5-11.5c0-6.4-5.1-11.5-11.5-11.5c-6.3,0-11.5,5.1-11.5,11.5
		C137.8,71.6,143,76.8,149.3,76.8z"/>
	<path fill="none" d="M91.3,77.9c-6.3,0-11.5,5.1-11.5,11.5c0,6.4,5.2,11.5,11.5,11.5c6.4,0,11.5-5.1,11.5-11.5
		C102.9,83.1,97.7,77.9,91.3,77.9z"/>
	<path d="M149.3,122.4c-13.3,0-24.2,10.9-24.2,24.2c0,11.3,7.8,20.9,18.4,23.5c-2.2-5.3-3.1-13.1,6.5-18.9c12.7-7.7,19-0.5,22,4
		c1-2.7,1.6-5.6,1.6-8.6C173.5,133.2,162.7,122.4,149.3,122.4z"/>
	<path d="M163.5,281.4c8.1-21.3,39.2-17.6,39.2-17.6l-49.2-77.4c-1.4,0.1-2.8,0.2-4.2,0.2c-22.1,0-40-18-40-40c0-22.1,18-40,40-40
		c22.1,0,40,18,40,40c0,8.9-2.9,17.1-7.9,23.8c3.4,5.6,7.7,12.4,12.1,19.6l5.9,9.6c-7-11.5-0.8-20.1,5.1-22.6
		c13.6-8.9,20.8,5,20.8,5l5.1,8.5c-5.1-8.5-4.7-15.8,2.7-20.1c0,0,4.7-3.3,9.2-2.6c4.9,0.7,11.5,6,19.1,19.2
		c0.3,0.6,0.6,1.1,0.9,1.5c-2.3-5.8-5.8-19.2,6.2-25.1c11.9-5,18.3,3,18.3,3s2.4,3.6,6.2,9.3c1.9-9.4,2.9-19.1,2.9-29
		C295.9,65.8,230.1,0,149.3,0C68.5,0,2.8,65.8,2.8,146.6c0,80.8,65.7,146.6,146.6,146.6c4.5,0,8.9-0.2,13.3-0.6
		C160.9,288.6,162.3,283.7,163.5,281.4z M149.3,53.8c6.4,0,11.5,5.1,11.5,11.5c0,6.4-5.1,11.5-11.5,11.5c-6.3,0-11.5-5.1-11.5-11.5
		C137.8,58.9,143,53.8,149.3,53.8z M68.3,158.1c-6.3,0-11.5-5.1-11.5-11.5c0-6.3,5.2-11.5,11.5-11.5c6.4,0,11.5,5.1,11.5,11.5
		C79.8,152.9,74.7,158.1,68.3,158.1z M91.3,100.9c-6.3,0-11.5-5.1-11.5-11.5c0-6.3,5.2-11.5,11.5-11.5c6.4,0,11.5,5.1,11.5,11.5
		C102.9,95.8,97.7,100.9,91.3,100.9z"/>
</g>
<line fill="none" stroke="#000000" stroke-width="7" stroke-linecap="round" stroke-linejoin="round" stroke-miterlimit="10" x1="262.8" y1="189.5" x2="273.8" y2="208.7"/>
<line fill="none" stroke="#000000" stroke-width="7" stroke-linecap="round" stroke-linejoin="round" stroke-miterlimit="10" x1="230" y1="189.5" x2="249.2" y2="221.4"/>
<line fill="none" stroke="#000000" stroke-width="7" stroke-linecap="round" stroke-linejoin="round" stroke-miterlimit="10" x1="198.4" y1="198.1" x2="223" y2="235.7"/>
<path fill="none" stroke="#000000" stroke-width="7" stroke-linecap="round" stroke-linejoin="round" stroke-miterlimit="10" d="
	M261.5,186.9c8.6,15-12.3-14.1,7-23.6c11.9-5,18.3,3,18.3,3s33.7,49.6,46.3,76.9c9.3,34.8-6.8,55.8-31.8,71.9
	c-25,16.1-44.7,6-63.6-4.7c-18.9-10.7-45.7-13.2-62.4-12.4c-16.7,0.7-14-12.4-11.8-16.6c8.1-21.3,39.2-17.6,39.2-17.6l-55.9-87.9
	c0,0-12.6-15.2,3.1-24.7c15.7-9.5,21.6,3.6,23.6,6.5c0.9,1.2,9.9,15.9,20,32.4l5.9,9.6c-7-11.5-0.8-20.1,5.1-22.6
	c13.6-8.9,20.8,5,20.8,5l5.1,8.5c-5.1-8.5-4.7-15.8,2.7-20.1c0,0,4.7-3.3,9.2-2.6C247.3,168.4,253.9,173.7,261.5,186.9z"/>
</svg>
