<svg width="1289" height="931" xmlns="http://www.w3.org/2000/svg"><g><path d="M-69,-88L-126,693L-78,97Z" fill="#917640" stroke="#917640"/><path d="M-69,-88L-78,97L48,22Z" fill="#583314" stroke="#583314"/><path d="M-69,-88L48,22L129,-81Z" fill="#512e15" stroke="#512e15"/><path d="M-69,-88L129,-81L225,-131Z" fill="#4b2b16" stroke="#4b2b16"/><path d="M129,-81L48,22L235,106Z" fill="#834d1a" stroke="#834d1a"/><path d="M129,-81L235,106L225,-131Z" fill="#7b4d23" stroke="#7b4d23"/><path d="M225,-131L235,106L402,-62Z" fill="#8d653a" stroke="#8d653a"/><path d="M225,-131L402,-62L567,-78Z" fill="#82705e" stroke="#82705e"/><path d="M225,-131L567,-78L796,-106Z" fill="#837c80" stroke="#837c80"/><path d="M225,-131L796,-106L1159,-96Z" fill="#637581" stroke="#637581"/><path d="M402,-62L235,106L394,122Z" fill="#b7884e" stroke="#b7884e"/><path d="M402,-62L394,122L515,60Z" fill="#ba956a" stroke="#ba956a"/><path d="M402,-62L515,60L567,-78Z" fill="#a38c79" stroke="#a38c79"/><path d="M567,-78L515,60L627,56Z" fill="#b29989" stroke="#b29989"/><path d="M567,-78L627,56L634,-68Z" fill="#9c8f8b" stroke="#9c8f8b"/><path d="M567,-78L634,-68L796,-106Z" fill="#7c8087" stroke="#7c8087"/><path d="M634,-68L627,56L796,-106Z" fill="#8a8a85" stroke="#8a8a85"/><path d="M796,-106L627,56L884,92Z" fill="#878d7a" stroke="#878d7a"/><path d="M796,-106L884,92L967,-16Z" fill="#5a7265" stroke="#5a7265"/><path d="M796,-106L967,-16L1159,-96Z" fill="#285052" stroke="#285052"/><path d="M967,-16L884,92L993,108Z" fill="#637457" stroke="#637457"/><path d="M967,-16L993,108L1143,64Z" fill="#4c6045" stroke="#4c6045"/><path d="M967,-16L1143,64L1159,-96Z" fill="#2c463a" stroke="#2c463a"/><path d="M1159,-96L1143,64L1255,-48Z" fill="#283227" stroke="#283227"/><path d="M1159,-96L1255,-48L1367,-82Z" fill="#141918" stroke="#141918"/><path d="M1255,-48L1143,64L1314,23Z" fill="#37321d" stroke="#37321d"/><path d="M1255,-48L1314,23L1367,-82Z" fill="#241a12" stroke="#241a12"/><path d="M1367,-82L1314,23L1418,57Z" fill="#321d12" stroke="#321d12"/><path d="M-78,97L-126,693L-88,508Z" fill="#918a80" stroke="#918a80"/><path d="M-78,97L-88,508L-53,332Z" fill="#988a69" stroke="#988a69"/><path d="M-78,97L-53,332L-34,181Z" fill="#956d30" stroke="#956d30"/><path d="M-78,97L-34,181L48,22Z" fill="#7e4b15" stroke="#7e4b15"/><path d="M48,22L-34,181L135,279Z" fill="#a5691d" stroke="#a5691d"/><path d="M48,22L135,279L235,106Z" fill="#b16f20" stroke="#b16f20"/><path d="M235,106L135,279L205,256Z" fill="#cf9944" stroke="#cf9944"/><path d="M235,106L205,256L340,171Z" fill="#d7993f" stroke="#d7993f"/><path d="M235,106L340,171L394,122Z" fill="#d19a4c" stroke="#d19a4c"/><path d="M394,122L340,171L516,341Z" fill="#efcc85" stroke="#efcc85"/><path d="M394,122L516,341L574,271Z" fill="#f9e5ad" stroke="#f9e5ad"/><path d="M394,122L574,271L515,60Z" fill="#e7bc80" stroke="#e7bc80"/><path d="M515,60L574,271L627,56Z" fill="#deb98e" stroke="#deb98e"/><path d="M627,56L574,271L715,183Z" fill="#e2c692" stroke="#e2c692"/><path d="M627,56L715,183L884,92Z" fill="#b5a981" stroke="#b5a981"/><path d="M884,92L715,183L921,194Z" fill="#a7ab76" stroke="#a7ab76"/><path d="M884,92L921,194L993,108Z" fill="#818d5f" stroke="#818d5f"/><path d="M993,108L921,194L1081,226Z" fill="#808f5a" stroke="#808f5a"/><path d="M993,108L1081,226L1143,64Z" fill="#667142" stroke="#667142"/><path d="M1143,64L1081,226L1219,242Z" fill="#74733c" stroke="#74733c"/><path d="M1143,64L1219,242L1314,23Z" fill="#5d4d22" stroke="#5d4d22"/><path d="M1314,23L1219,242L1454,195Z" fill="#6d4a19" stroke="#6d4a19"/><path d="M1314,23L1454,195L1418,57Z" fill="#563312" stroke="#563312"/><path d="M-34,181L-53,332L67,345Z" fill="#a88f5d" stroke="#a88f5d"/><path d="M-34,181L67,345L135,279Z" fill="#b79655" stroke="#b79655"/><path d="M135,279L67,345L242,334Z" fill="#ccac75" stroke="#ccac75"/><path d="M135,279L242,334L205,256Z" fill="#d6b16d" stroke="#d6b16d"/><path d="M205,256L242,334L340,171Z" fill="#e3bc6b" stroke="#e3bc6b"/><path d="M340,171L242,334L409,364Z" fill="#ecd494" stroke="#ecd494"/><path d="M340,171L409,364L516,341Z" fill="#f6e6b1" stroke="#f6e6b1"/><path d="M574,271L516,341L625,373Z" fill="#faf8e7" stroke="#faf8e7"/><path d="M574,271L625,373L768,282Z" fill="#edf3db" stroke="#edf3db"/><path d="M574,271L768,282L715,183Z" fill="#e5e6b9" stroke="#e5e6b9"/><path d="M715,183L768,282L921,194Z" fill="#c0cd9b" stroke="#c0cd9b"/><path d="M768,282L625,373L839,363Z" fill="#d7f0e1" stroke="#d7f0e1"/><path d="M768,282L839,363L921,194Z" fill="#b9d9b3" stroke="#b9d9b3"/><path d="M921,194L839,363L1006,378Z" fill="#9fcbb2" stroke="#9fcbb2"/><path d="M921,194L1006,378L1081,226Z" fill="#8cb38b" stroke="#8cb38b"/><path d="M1081,226L1006,378L1145,344Z" fill="#80ac94" stroke="#80ac94"/><path d="M1081,226L1145,344L1219,242Z" fill="#809870" stroke="#809870"/><path d="M1219,242L1145,344L1310,323Z" fill="#808f71" stroke="#808f71"/><path d="M1219,242L1310,323L1454,195Z" fill="#80754a" stroke="#80754a"/><path d="M1454,195L1310,323L1437,415Z" fill="#807c67" stroke="#807c67"/><path d="M1454,195L1437,415L1479,678Z" fill="#7f8080" stroke="#7f8080"/><path d="M-53,332L-88,508L67,345Z" fill="#a4947e" stroke="#a4947e"/><path d="M67,345L-88,508L108,570Z" fill="#ab9c83" stroke="#ab9c83"/><path d="M67,345L108,570L242,334Z" fill="#caad87" stroke="#caad87"/><path d="M242,334L108,570L258,553Z" fill="#d2ba92" stroke="#d2ba92"/><path d="M242,334L258,553L409,364Z" fill="#e9d3ad" stroke="#e9d3ad"/><path d="M409,364L258,553L377,569Z" fill="#e7e0bd" stroke="#e7e0bd"/><path d="M409,364L377,569L508,537Z" fill="#f0eed6" stroke="#f0eed6"/><path d="M409,364L508,537L516,341Z" fill="#fbf4e2" stroke="#fbf4e2"/><path d="M516,341L508,537L625,373Z" fill="#faf8f2" stroke="#faf8f2"/><path d="M625,373L508,537L643,575Z" fill="#f2fafa" stroke="#f2fafa"/><path d="M625,373L643,575L770,527Z" fill="#e0f6f4" stroke="#e0f6f4"/><path d="M625,373L770,527L839,363Z" fill="#d7f0eb" stroke="#d7f0eb"/><path d="M839,363L770,527L1010,533Z" fill="#a9dad5" stroke="#a9dad5"/><path d="M839,363L1010,533L1006,378Z" fill="#97c8c4" stroke="#97c8c4"/><path d="M1006,378L1010,533L1144,527Z" fill="#7bb3af" stroke="#7bb3af"/><path d="M1006,378L1144,527L1145,344Z" fill="#80aba5" stroke="#80aba5"/><path d="M1145,344L1144,527L1369,466Z" fill="#7d958e" stroke="#7d958e"/><path d="M1145,344L1369,466L1310,323Z" fill="#808b7e" stroke="#808b7e"/><path d="M1310,323L1369,466L1437,415Z" fill="#80807d" stroke="#80807d"/><path d="M1437,415L1369,466L1479,678Z" fill="#717f7e" stroke="#717f7e"/><path d="M-88,508L-126,693L61,685Z" fill="#577e68" stroke="#577e68"/><path d="M-88,508L61,685L108,570Z" fill="#7f9777" stroke="#7f9777"/><path d="M108,570L61,685L271,656Z" fill="#81986d" stroke="#81986d"/><path d="M108,570L271,656L258,553Z" fill="#a6b786" stroke="#a6b786"/><path d="M258,553L271,656L377,569Z" fill="#b5cea1" stroke="#b5cea1"/><path d="M377,569L271,656L339,679Z" fill="#a3c59b" stroke="#a3c59b"/><path d="M377,569L339,679L534,681Z" fill="#a8d3b3" stroke="#a8d3b3"/><path d="M377,569L534,681L508,537Z" fill="#c6eed5" stroke="#c6eed5"/><path d="M508,537L534,681L643,575Z" fill="#c4f2e7" stroke="#c4f2e7"/><path d="M643,575L534,681L677,707Z" fill="#a0dcd6" stroke="#a0dcd6"/><path d="M643,575L677,707L769,699Z" fill="#8ed6ce" stroke="#8ed6ce"/><path d="M643,575L769,699L770,527Z" fill="#a4eadf" stroke="#a4eadf"/><path d="M770,527L769,699L968,721Z" fill="#6ac8bc" stroke="#6ac8bc"/><path d="M770,527L968,721L1010,533Z" fill="#6dcbbf" stroke="#6dcbbf"/><path d="M1010,533L968,721L1072,714Z" fill="#349d94" stroke="#349d94"/><path d="M1010,533L1072,714L1144,527Z" fill="#4daa9e" stroke="#4daa9e"/><path d="M1144,527L1072,714L1226,583Z" fill="#44978b" stroke="#44978b"/><path d="M1144,527L1226,583L1369,466Z" fill="#6e8f87" stroke="#6e8f87"/><path d="M1226,583L1072,714L1164,786Z" fill="#1d756b" stroke="#1d756b"/><path d="M1226,583L1164,786L1289,717Z" fill="#1d685c" stroke="#1d685c"/><path d="M1226,583L1289,717L1369,466Z" fill="#4e8374" stroke="#4e8374"/><path d="M1369,466L1289,717L1479,678Z" fill="#3e7069" stroke="#3e7069"/><path d="M-126,693L-124,947L-22,780Z" fill="#1d3a2a" stroke="#1d3a2a"/><path d="M-126,693L-22,780L61,685Z" fill="#3c6049" stroke="#3c6049"/><path d="M61,685L-22,780L91,783Z" fill="#485f40" stroke="#485f40"/><path d="M61,685L91,783L220,782Z" fill="#5b6b42" stroke="#5b6b42"/><path d="M61,685L220,782L271,656Z" fill="#6f865a" stroke="#6f865a"/><path d="M271,656L220,782L339,679Z" fill="#819c70" stroke="#819c70"/><path d="M339,679L220,782L387,850Z" fill="#7a9167" stroke="#7a9167"/><path d="M339,679L387,850L534,681Z" fill="#8cb194" stroke="#8cb194"/><path d="M534,681L387,850L578,799Z" fill="#8aae9b" stroke="#8aae9b"/><path d="M534,681L578,799L677,707Z" fill="#90c2bd" stroke="#90c2bd"/><path d="M677,707L578,799L649,828Z" fill="#7fb0aa" stroke="#7fb0aa"/><path d="M677,707L649,828L769,699Z" fill="#79b8b1" stroke="#79b8b1"/><path d="M769,699L649,828L848,838Z" fill="#60a39a" stroke="#60a39a"/><path d="M769,699L848,838L968,721Z" fill="#469d93" stroke="#469d93"/><path d="M968,721L848,838L968,778Z" fill="#2c857c" stroke="#2c857c"/><path d="M968,721L968,778L1072,714Z" fill="#22837a" stroke="#22837a"/><path d="M1072,714L968,778L1164,786Z" fill="#136e66" stroke="#136e66"/><path d="M1289,717L1164,786L1255,877Z" fill="#0b4639" stroke="#0b4639"/><path d="M1289,717L1255,877L1416,832Z" fill="#083229" stroke="#083229"/><path d="M1289,717L1416,832L1479,678Z" fill="#15443f" stroke="#15443f"/><path d="M1479,678L1416,832L1472,1138Z" fill="#001911" stroke="#001911"/><path d="M-22,780L-124,947L65,991Z" fill="#24260b" stroke="#24260b"/><path d="M-22,780L65,991L91,783Z" fill="#35411f" stroke="#35411f"/><path d="M91,783L65,991L177,948Z" fill="#45390e" stroke="#45390e"/><path d="M91,783L177,948L220,782Z" fill="#52582c" stroke="#52582c"/><path d="M220,782L177,948L387,850Z" fill="#636838" stroke="#636838"/><path d="M387,850L177,948L435,964Z" fill="#6d6a3d" stroke="#6d6a3d"/><path d="M387,850L435,964L510,943Z" fill="#797e5f" stroke="#797e5f"/><path d="M387,850L510,943L578,799Z" fill="#7b947e" stroke="#7b947e"/><path d="M578,799L510,943L649,828Z" fill="#7b9b92" stroke="#7b9b92"/><path d="M649,828L510,943L639,1030Z" fill="#78847a" stroke="#78847a"/><path d="M649,828L639,1030L769,918Z" fill="#678277" stroke="#678277"/><path d="M649,828L769,918L848,838Z" fill="#548e82" stroke="#548e82"/><path d="M848,838L769,918L951,950Z" fill="#357264" stroke="#357264"/><path d="M848,838L951,950L968,778Z" fill="#207064" stroke="#207064"/><path d="M968,778L951,950L1164,786Z" fill="#085f54" stroke="#085f54"/><path d="M1164,786L951,950L1179,1000Z" fill="#013b2e" stroke="#013b2e"/><path d="M1164,786L1179,1000L1255,877Z" fill="#003122" stroke="#003122"/><path d="M1255,877L1179,1000L1223,1026Z" fill="#00160f" stroke="#00160f"/><path d="M1255,877L1223,1026L1392,937Z" fill="#000f01" stroke="#000f01"/><path d="M1255,877L1392,937L1416,832Z" fill="#001911" stroke="#001911"/><path d="M1416,832L1392,937L1472,1138Z" fill="#000000" stroke="#000000"/><path d="M-124,947L-50,1086L65,991Z" fill="#221302" stroke="#221302"/><path d="M65,991L-50,1086L81,1165Z" fill="#321d03" stroke="#321d03"/><path d="M65,991L81,1165L253,1149Z" fill="#4a2c08" stroke="#4a2c08"/><path d="M65,991L253,1149L177,948Z" fill="#51330c" stroke="#51330c"/><path d="M177,948L253,1149L435,964Z" fill="#675029" stroke="#675029"/><path d="M435,964L253,1149L371,1183Z" fill="#70613f" stroke="#70613f"/><path d="M435,964L371,1183L583,1166Z" fill="#7b7360" stroke="#7b7360"/><path d="M435,964L583,1166L510,943Z" fill="#7b776a" stroke="#7b776a"/><path d="M510,943L583,1166L639,1030Z" fill="#7b7a79" stroke="#7b7a79"/><path d="M639,1030L583,1166L638,1176Z" fill="#747978" stroke="#747978"/><path d="M639,1030L638,1176L801,1164Z" fill="#667673" stroke="#667673"/><path d="M639,1030L801,1164L769,918Z" fill="#5a716e" stroke="#5a716e"/><path d="M769,918L801,1164L951,950Z" fill="#3a625c" stroke="#3a625c"/><path d="M951,950L801,1164L1019,1182Z" fill="#1f4f4b" stroke="#1f4f4b"/><path d="M951,950L1019,1182L1153,1136Z" fill="#043632" stroke="#043632"/><path d="M951,950L1153,1136L1179,1000Z" fill="#012c27" stroke="#012c27"/><path d="M1179,1000L1153,1136L1223,1026Z" fill="#001c16" stroke="#001c16"/><path d="M1223,1026L1153,1136L1277,1184Z" fill="#00160f" stroke="#00160f"/><path d="M1223,1026L1277,1184L1472,1138Z" fill="#000300" stroke="#000300"/><path d="M1223,1026L1472,1138L1392,937Z" fill="#000000" stroke="#000000"/><path d="M81,1165L371,1183L253,1149Z" fill="#604117" stroke="#604117"/><path d="M371,1183L1277,1184L1019,1182Z" fill="#2a5752" stroke="#2a5752"/><path d="M371,1183L1019,1182L638,1176Z" fill="#697775" stroke="#697775"/><path d="M371,1183L638,1176L583,1166Z" fill="#7b786f" stroke="#7b786f"/><path d="M638,1176L1019,1182L801,1164Z" fill="#416761" stroke="#416761"/><path d="M1019,1182L1277,1184L1153,1136Z" fill="#00221d" stroke="#00221d"/></g></svg>